<?xml version="1.0" encoding="utf-8"?>
<!-- Generator: Adobe Illustrator 19.0.0, SVG Export Plug-In . SVG Version: 6.00 Build 0)  -->
<svg version="1.1" id="Layer_1" xmlns="http://www.w3.org/2000/svg" xmlns:xlink="http://www.w3.org/1999/xlink" x="0px" y="0px"
	 width="300px" height="300px" viewBox="-155 247 300 300" style="enable-background:new -155 247 300 300;" xml:space="preserve">
<style type="text/css">
	.st0{opacity:0.3;fill:#6B6B6B;}
	.st1{fill:none;stroke:#6B6B6B;stroke-width:12;stroke-linecap:round;stroke-linejoin:round;stroke-miterlimit:10;}
</style>
<g>
	<path class="st0" d="M-121.0908051,326.4139404c19.0667725-23.099884,50.2025757-26.2350159,89.3436737-30.1761169
		c16.844574-1.6960754,32.4749756-1.4276123,47.9900208-1.1610718c16.8355999,0.2892456,31.618803,0.5981445,50.1893616,3.61203
		c30.4137878,4.9359741,48.164505,7.7763367,56.4585724,21.6760559c6.2898712,10.5408936,4.1453857,22.4032288,1.4520264,37.3018188
		c-0.9694824,5.3627625-4.4640503,22.4247742-21.666687,49.666687
		c-8.582901,13.5917969-19.8408966,31.4198303-40.7653389,49.5162659
		c-12.5832825,10.8825989-37.4013672,31.8506775-75.0811768,39.0886536c-13.2631216,2.5477295-29.4695129,5.6608887-49.1510925,0
		c-30.2854576-8.7107849-46.6011009-31.8121033-52.7202263-40.4761658
		c-3.0080719-4.2591248-17.4425049-25.3226013-20.6678467-56.962677
		C-137.3430481,382.474762-140.6430817,350.1020813-121.0908051,326.4139404z"/>
	<path class="st1" d="M-121.0908051,326.4139404c19.0667725-23.099884,50.2025757-26.2350159,89.3436737-30.1761169
		c16.844574-1.6960754,32.4749756-1.4276123,47.9900208-1.1610718c16.8355999,0.2892456,31.618803,0.5981445,50.1893616,3.61203
		c30.4137878,4.9359741,48.164505,7.7763367,56.4585724,21.6760559c6.2898712,10.5408936,4.1453857,22.4032288,1.4520264,37.3018188
		c-0.9694824,5.3627625-4.4640503,22.4247742-21.666687,49.666687
		c-8.582901,13.5917969-19.8408966,31.4198303-40.7653389,49.5162659
		c-12.5832825,10.8825989-37.4013672,31.8506775-75.0811768,39.0886536c-13.2631216,2.5477295-29.4695129,5.6608887-49.1510925,0
		c-30.2854576-8.7107849-46.6011009-31.8121033-52.7202263-40.4761658
		c-3.0080719-4.2591248-17.4425049-25.3226013-20.6678467-56.962677
		C-137.3430481,382.474762-140.6430817,350.1020813-121.0908051,326.4139404z"/>
</g>
</svg>
