<?xml version="1.0" encoding="utf-8"?>
<!-- Generator: Adobe Illustrator 19.0.0, SVG Export Plug-In . SVG Version: 6.00 Build 0)  -->
<svg version="1.1" id="Layer_1" xmlns="http://www.w3.org/2000/svg" xmlns:xlink="http://www.w3.org/1999/xlink" x="0px" y="0px"
	 width="300px" height="300px" viewBox="100 -100 300 300" style="enable-background:new 100 -100 300 300;" xml:space="preserve">
<style type="text/css">
	.st0{fill:#ffd700;}
</style>
<g>
	<path class="st0" d="M356.4689636-0.3614816l21.511261-21.5112648c5.3597107-5.359684,5.3597107-14.0494499,0-19.4091339
		l-36.6983337-36.6983604c-5.3597107-5.3596802-14.049469-5.3596802-19.4091492,0l-21.511261,21.5112686
		c-0.930481,0.9304733-0.930481,2.4390755,0,3.3695526l52.7379456,52.7379379
		C354.0299072,0.5689946,355.5384827,0.5689946,356.4689636-0.3614816z"/>
	<path class="st0" d="M118,133.3674927v45.3763733C118,180.5421753,119.4578247,182,121.256134,182h45.3763733
		c4.7861481,0,9.3762665-1.9012909,12.7605896-5.285614L341.292572,14.8149128c0.930481-0.9304762,0.930481-2.4390764,0-3.3695526
		l-52.7379456-52.7379379c-0.9304504-0.9304771-2.4390564-0.9304771-3.3695374,0L123.2856064,120.6069031
		C119.9012909,123.9912186,118,128.5813446,118,133.3674927z"/>
</g>
</svg>
