<?xml version="1.0" encoding="utf-8"?>
<!-- Generator: Adobe Illustrator 19.0.0, SVG Export Plug-In . SVG Version: 6.00 Build 0)  -->
<svg version="1.1" id="Layer_1" xmlns="http://www.w3.org/2000/svg" xmlns:xlink="http://www.w3.org/1999/xlink" x="0px" y="0px"
	 width="300px" height="300px" viewBox="-155 247 300 300" style="enable-background:new -155 247 300 300;" xml:space="preserve">
<style type="text/css">
	.st0{fill:none;stroke:#ffd700;stroke-width:20;stroke-linecap:round;stroke-linejoin:round;stroke-miterlimit:10;}
</style>
<g>
	<path class="st0" d="M-5,325.9489441c11.5089111-26.0981445,37.4700928-43.9305115,63.4151306-44.360199
		c26.7614746-0.442688,44.7353821,17.1659851,49.4637451,22.1955872
		c20.4182129,21.7197876,19.2732544,48.6773071,19.0244141,54.5367126
		c-0.2949829,6.9394531-1.6690674,16.6996155-8.8779907,32.9758301
		c-3.9745789,8.9728394-17.9188538,38.4332886-58.3421326,74.8295898C45.0908203,479.2655029,23.7165527,496.3075562-5,512.4194946"
		/>
	<path class="st0" d="M-5,512.4194946c-28.7165375-16.1119385-50.0908051-33.1539917-64.6831665-46.2930298
		c-40.4232941-36.3963013-54.3675385-65.8567505-58.3421478-74.8295898
		c-7.2089081-16.2762146-8.5830078-26.036377-8.8779755-32.9758301c-0.2488556-5.8594055-1.3937988-32.816925,19.0244141-54.5367126
		c4.7283478-5.0296021,22.7022705-22.6382751,49.4637299-22.1955872C-42.4700775,282.0184326-16.5089111,299.8507996-5,325.9489441"
		/>
</g>
</svg>
